<svg xmlns="http://www.w3.org/2000/svg" xmlns:xlink="http://www.w3.org/1999/xlink" version="1.1" x="0px" y="0px" viewBox="0 0 100 100" enable-background="new 0 0 100 100" xml:space="preserve"><g><path fill="none" d="M15.744,71.451c0.029,1.264,0.154,2.474,0.483,3.268c0.019,0.045,0.05,0.081,0.072,0.124   c0.772-0.614,1.482-1.298,2.121-2.071c0.844-1.021,2.292,0.442,1.454,1.454c-0.585,0.708-1.233,1.353-1.93,1.941   c2.51,0.896,6.851,0.135,8.944,0.155c3.462,0.033,4.5-0.55,4.522-3.935c0.013-2.037,0.029-4.073,0.047-6.11   c0.029-3.325,0.063-6.651,0.089-9.976c0.007-0.965,0.667-5.304,0.025-6.103c-0.765-0.953-3.265-0.516-4.467-0.631   c-2.829-0.272-5.638-0.743-8.495-0.447c-2.025,0.21-2.059,0.264-2.202,2.199c-0.026,0.347-0.034,0.698-0.038,1.05   c0.756-0.558,1.513-1.117,2.269-1.675c1.067-0.788,2.091,0.998,1.038,1.776c-1.092,0.806-2.183,1.612-3.274,2.417   c0.003,0.37,0.002,0.738-0.013,1.104c-0.019,0.461-0.047,0.92-0.071,1.379c0.713-0.584,1.426-1.168,2.139-1.753   c1.016-0.833,2.479,0.615,1.454,1.454c-1.249,1.023-2.497,2.046-3.746,3.069c-0.046,0.775-0.086,1.55-0.126,2.326   c0.878-0.781,1.773-1.544,2.697-2.274c1.028-0.812,2.492,0.634,1.454,1.454c-1.478,1.167-2.891,2.407-4.253,3.707   c-0.013,0.608-0.031,1.215-0.025,1.825c-0.036,0.421-0.075,0.945-0.109,1.509c0.635-0.55,1.27-1.099,1.905-1.649   c0.997-0.863,2.457,0.587,1.454,1.454C18.023,69.479,16.884,70.465,15.744,71.451z"></path><path fill="none" d="M50.584,63.906c-2.209,1.571-4.215,3.375-6.039,5.379c0.021,0.414,0.041,0.828,0.064,1.246   c0.022,0.41,0.02,0.819,0.015,1.22c1.523-1.181,3.025-2.388,4.49-3.642c1.001-0.857,2.461,0.592,1.454,1.454   c-1.887,1.617-3.828,3.166-5.809,4.666c0.17,0.702,0.536,1.264,1.311,1.587c1.627-1.174,3.253-2.349,4.88-3.523   c1.076-0.777,2.101,1.008,1.038,1.776c-0.995,0.719-1.991,1.437-2.986,2.156c3.599,0.2,10.163,0.229,10.97-0.942   c0.806-1.17,0.062-5.454,0.069-6.842c0.013-2.633,0.026-5.266,0.038-7.899c0.025-5.381,0.05-10.762,0.077-16.143   c0.009-1.707,0.729-5.545,0.038-7.149c-0.776-1.802-2.954-1.117-4.996-1.347c-1.803-0.204-8.97-1.687-10.247,0.208   c-0.266,0.395-0.136,1.788-0.015,2.897c0.936-0.837,1.921-1.619,2.96-2.333c1.095-0.752,2.122,1.031,1.038,1.776   c-1.413,0.971-2.704,2.08-3.9,3.303c-0.01,0.662-0.018,1.323-0.034,1.985c1.032-1.032,2.147-1.977,3.357-2.819   c1.09-0.758,2.117,1.026,1.038,1.776c-1.698,1.181-3.185,2.601-4.489,4.199c-0.015,0.452-0.028,0.905-0.044,1.357   c-0.015,0.423-0.031,0.845-0.046,1.268c1.186-1.096,2.447-2.105,3.791-3.014c1.1-0.744,2.129,1.039,1.038,1.776   c-1.809,1.223-3.445,2.643-4.936,4.234c-0.031,0.849-0.06,1.699-0.086,2.549c1.17-1.053,2.413-2.023,3.738-2.887   c1.113-0.726,2.143,1.056,1.038,1.776c-1.776,1.158-3.38,2.512-4.845,4.035c-0.021,1.086-0.028,2.172-0.026,3.257   c1.153-1.133,2.357-2.212,3.624-3.223c1.025-0.818,2.489,0.629,1.454,1.454c-1.841,1.468-3.556,3.07-5.155,4.796   c-0.02,0.721-0.025,1.439-0.012,2.156c1.581-1.571,3.285-3.002,5.108-4.298C50.627,61.36,51.653,63.145,50.584,63.906z"></path><path fill="none" d="M77.338,68.086c-1.202,0.989-2.404,1.978-3.607,2.967c0.048,0.666,0.123,1.312,0.222,1.936   c0.757-0.811,1.531-1.606,2.342-2.366c0.965-0.905,2.422,0.547,1.454,1.454c-1.06,0.994-2.065,2.04-3.034,3.122   c0.164,0.192,0.352,0.354,0.563,0.487c0.779-0.621,1.514-1.294,2.186-2.029c0.896-0.979,2.346,0.479,1.454,1.454   c-0.387,0.423-0.8,0.814-1.22,1.199c1.211,0.068,2.533-0.046,3.656-0.012c1.942,0.059,6.953,0.775,7.958-1.415   c0.621-1.355,0-4.601,0.008-6.087c0.059-10.879,0.113-21.759,0.169-32.638c0.024-4.68,0.048-9.36,0.074-14.041   c0.011-1.943,0.497-3.364-1.154-4.134c-1.457-0.679-5.821-0.584-7.545-0.663c-2.092-0.096-5.987-0.644-6.506,1.52   c-0.179,0.745-0.06,1.786,0.024,2.722c0.846-0.672,1.679-1.358,2.487-2.076c0.987-0.877,2.446,0.573,1.454,1.454   c-1.252,1.112-2.555,2.161-3.892,3.168c-0.005,0.892-0.015,1.784-0.026,2.676c0.484-0.431,0.971-0.857,1.484-1.257   c0.436-0.339,1.027-0.437,1.454,0c0.354,0.362,0.442,1.11,0,1.454c-1.056,0.822-2.035,1.728-2.969,2.683   c-0.016,1.03-0.035,2.06-0.053,3.09c0.666-0.595,1.331-1.19,1.997-1.785c0.985-0.88,2.443,0.57,1.454,1.454   c-1.167,1.042-2.333,2.085-3.499,3.128c-0.002,0.091-0.003,0.183-0.005,0.275c-0.014,0.812-0.035,1.626-0.051,2.438   c1.212-0.865,2.456-1.681,3.748-2.431c1.148-0.667,2.182,1.111,1.038,1.776c-1.68,0.976-3.296,2.051-4.84,3.23   c-0.013,0.566-0.023,1.132-0.036,1.698c0.641-0.537,1.298-1.057,1.97-1.557c0.444-0.331,1.155-0.073,1.407,0.369   c0.297,0.521,0.08,1.073-0.369,1.407c-1.075,0.801-2.09,1.674-3.07,2.586c-0.027,1.207-0.056,2.413-0.08,3.62   c1.047-0.895,2.123-1.754,3.259-2.538c1.093-0.754,2.12,1.029,1.038,1.776c-1.542,1.064-2.98,2.249-4.338,3.538   c-0.013,0.819-0.025,1.638-0.034,2.456c0.751-0.584,1.514-1.152,2.254-1.752c1.02-0.826,2.483,0.621,1.454,1.454   c-1.223,0.991-2.476,1.944-3.73,2.897c-0.003,0.733,0.006,1.466,0.008,2.199c1.08-0.893,2.186-1.753,3.345-2.544   c1.097-0.749,2.125,1.034,1.038,1.776c-1.537,1.049-2.99,2.2-4.374,3.444c0.004,0.324-0.001,0.648,0.004,0.973   c-0.046,0.614-0.09,1.266-0.131,1.93c1.283-0.973,2.556-1.96,3.807-2.974c1.02-0.827,2.483,0.62,1.454,1.454   c-1.763,1.429-3.557,2.819-5.379,4.172c-0.01,0.416-0.018,0.833-0.018,1.25c0.747-0.614,1.494-1.229,2.24-1.843   C76.899,65.797,78.361,67.245,77.338,68.086z"></path><path d="M25.659,79.005c3.79,0.051,8.051,0.524,8.477-4.111c0.52-5.648,0.095-11.593,0.141-17.272   c0.022-2.745,1.564-9.149-1.864-10.449c-1.952-0.74-5.132-0.372-7.236-0.614c-2.055-0.236-4.058-0.254-6.125-0.193   c-3.613,0.108-5.417,0.311-5.435,4.225c-0.025,5.529-0.497,11.056-0.447,16.586c-0.217,2.55-0.64,7.668,0.789,9.842   C16.099,80.273,22.609,78.964,25.659,79.005z M17.709,67.038c-0.635,0.55-1.27,1.099-1.905,1.649   c0.034-0.564,0.073-1.088,0.109-1.509c-0.005-0.61,0.013-1.217,0.025-1.825c1.362-1.299,2.775-2.539,4.253-3.707   c1.038-0.82-0.426-2.266-1.454-1.454c-0.924,0.73-1.818,1.493-2.697,2.274c0.04-0.775,0.08-1.551,0.126-2.326   c1.249-1.023,2.497-2.046,3.746-3.069c1.024-0.839-0.438-2.287-1.454-1.454c-0.713,0.584-1.426,1.168-2.139,1.753   c0.024-0.46,0.052-0.919,0.071-1.379c0.015-0.366,0.016-0.735,0.013-1.104c1.092-0.806,2.183-1.612,3.274-2.417   c1.053-0.778,0.029-2.564-1.038-1.776c-0.756,0.558-1.513,1.117-2.269,1.675c0.003-0.352,0.012-0.703,0.038-1.05   c0.142-1.935,0.177-1.989,2.202-2.199c2.858-0.296,5.666,0.175,8.495,0.447c1.202,0.116,3.703-0.322,4.467,0.631   c0.641,0.799-0.018,5.138-0.025,6.103c-0.026,3.325-0.06,6.651-0.089,9.976c-0.018,2.037-0.034,4.073-0.047,6.11   c-0.023,3.385-1.06,3.968-4.522,3.935c-2.093-0.02-6.434,0.741-8.944-0.155c0.698-0.588,1.346-1.233,1.93-1.941   c0.837-1.013-0.61-2.476-1.454-1.454c-0.639,0.772-1.349,1.457-2.121,2.071c-0.021-0.043-0.053-0.079-0.072-0.124   c-0.329-0.794-0.454-2.004-0.483-3.268c1.139-0.986,2.279-1.973,3.418-2.959C20.165,67.624,18.705,66.175,17.709,67.038z"></path><path d="M42.356,76.423c1.348,3.099,5.595,2.393,8.292,2.323c2.8-0.072,8.645,0.974,11.017-0.85   c2.368-1.82,1.111-8.284,1.124-10.845c0.031-6.128,0.058-12.256,0.087-18.384c0.014-2.983,0.029-5.965,0.045-8.948   c0.008-1.38,0.445-3.83-0.389-5.096c-1.456-2.21-6.857-1.465-9.109-1.721c-2.333-0.265-8.022-1.057-10.12,0.5   c-2.231,1.655-0.984,7.698-1.039,10.074c-0.15,6.388-0.56,12.774-0.483,19.166c-0.197,2.656-0.058,5.236,0.084,7.889   C41.958,72.252,41.637,74.767,42.356,76.423z M44.449,64.272c1.599-1.726,3.314-3.328,5.155-4.796   c1.034-0.825-0.429-2.272-1.454-1.454c-1.267,1.011-2.471,2.089-3.624,3.223c-0.001-1.086,0.006-2.172,0.026-3.257   c1.465-1.523,3.069-2.877,4.845-4.035c1.105-0.72,0.075-2.502-1.038-1.776c-1.325,0.864-2.568,1.833-3.738,2.887   c0.026-0.85,0.055-1.699,0.086-2.549c1.491-1.591,3.127-3.01,4.936-4.234c1.091-0.737,0.062-2.52-1.038-1.776   c-1.344,0.909-2.605,1.918-3.791,3.014c0.015-0.423,0.032-0.845,0.046-1.268c0.016-0.452,0.029-0.905,0.044-1.357   c1.305-1.598,2.791-3.018,4.489-4.199c1.079-0.75,0.052-2.534-1.038-1.776c-1.21,0.841-2.325,1.787-3.357,2.819   c0.017-0.662,0.025-1.323,0.034-1.985c1.196-1.223,2.487-2.332,3.9-3.303c1.084-0.745,0.057-2.528-1.038-1.776   c-1.039,0.714-2.024,1.496-2.96,2.333c-0.121-1.109-0.251-2.502,0.015-2.897c1.277-1.895,8.444-0.412,10.247-0.208   c2.043,0.231,4.22-0.454,4.996,1.347c0.691,1.604-0.03,5.442-0.038,7.149c-0.027,5.381-0.051,10.762-0.077,16.143   c-0.012,2.633-0.025,5.266-0.038,7.899c-0.007,1.388,0.737,5.672-0.069,6.842c-0.807,1.171-7.371,1.142-10.97,0.942   c0.995-0.718,1.991-1.437,2.986-2.156c1.063-0.768,0.038-2.553-1.038-1.776c-1.627,1.174-3.253,2.349-4.88,3.523   c-0.775-0.322-1.142-0.884-1.311-1.587c1.981-1.5,3.921-3.05,5.809-4.666c1.007-0.862-0.454-2.312-1.454-1.454   c-1.464,1.254-2.966,2.461-4.49,3.642c0.005-0.401,0.007-0.81-0.015-1.22c-0.022-0.418-0.043-0.831-0.064-1.246   c1.824-2.004,3.83-3.808,6.039-5.379c1.07-0.761,0.044-2.545-1.038-1.776c-1.823,1.297-3.527,2.728-5.108,4.298   C44.424,65.712,44.429,64.993,44.449,64.272z"></path><path d="M71.395,74.015c0.178,2.208,0.442,3.56,2.642,4.416c2.194,0.853,5,0.54,7.317,0.61c2.807,0.085,5.988,0.284,8.632-0.893   c3.494-1.555,2.065-7.392,2.082-10.673c0.036-6.737,0.07-13.473,0.105-20.21c0.035-6.826,0.07-13.652,0.106-20.478   c0.015-2.898,1.503-10.087-1.869-11.367c-2.346-0.89-5.96-0.548-8.51-0.771c-2.315-0.203-5.686-0.441-7.973,0.184   c-3.644,0.997-2.212,6.227-2.234,9.224c-0.091,12.856-0.725,25.728-0.526,38.583C70.889,66.399,71.093,70.262,71.395,74.015z    M73.661,67.224c1.822-1.353,3.616-2.743,5.379-4.172c1.028-0.834-0.435-2.281-1.454-1.454c-1.251,1.014-2.524,2.001-3.807,2.974   c0.041-0.665,0.085-1.317,0.131-1.93c-0.005-0.324,0-0.649-0.004-0.973c1.384-1.244,2.836-2.395,4.374-3.444   c1.087-0.742,0.059-2.525-1.038-1.776c-1.159,0.791-2.265,1.652-3.345,2.544c-0.002-0.733-0.011-1.466-0.008-2.199   c1.253-0.952,2.506-1.906,3.73-2.897c1.029-0.833-0.434-2.28-1.454-1.454c-0.74,0.599-1.503,1.168-2.254,1.752   c0.009-0.819,0.021-1.638,0.034-2.456c1.358-1.288,2.796-2.474,4.338-3.538c1.082-0.747,0.055-2.53-1.038-1.776   c-1.136,0.784-2.212,1.643-3.259,2.538c0.024-1.207,0.053-2.414,0.08-3.62c0.98-0.913,1.995-1.786,3.07-2.586   c0.449-0.334,0.665-0.886,0.369-1.407c-0.251-0.442-0.963-0.7-1.407-0.369c-0.672,0.501-1.329,1.02-1.97,1.557   c0.013-0.566,0.023-1.132,0.036-1.698c1.544-1.178,3.16-2.254,4.84-3.23c1.144-0.665,0.11-2.443-1.038-1.776   c-1.292,0.75-2.536,1.567-3.748,2.431c0.017-0.813,0.037-1.626,0.051-2.438c0.002-0.091,0.003-0.183,0.005-0.275   c1.166-1.042,2.333-2.085,3.499-3.128c0.989-0.884-0.47-2.334-1.454-1.454c-0.666,0.595-1.331,1.19-1.997,1.785   c0.018-1.03,0.037-2.06,0.053-3.09c0.934-0.955,1.913-1.861,2.969-2.683c0.442-0.344,0.354-1.092,0-1.454   c-0.428-0.437-1.019-0.339-1.454,0c-0.513,0.399-1,0.826-1.484,1.257c0.01-0.892,0.02-1.784,0.026-2.676   c1.337-1.008,2.64-2.056,3.892-3.168c0.992-0.881-0.467-2.331-1.454-1.454c-0.808,0.718-1.641,1.405-2.487,2.076   c-0.084-0.936-0.203-1.977-0.024-2.722c0.519-2.164,4.414-1.616,6.506-1.52c1.724,0.079,6.089-0.016,7.545,0.663   c1.651,0.77,1.165,2.192,1.154,4.134c-0.026,4.68-0.05,9.36-0.074,14.041c-0.056,10.879-0.11,21.759-0.169,32.638   c-0.008,1.486,0.613,4.733-0.008,6.087c-1.004,2.19-6.015,1.474-7.958,1.415c-1.123-0.034-2.445,0.08-3.656,0.012   c0.419-0.385,0.833-0.776,1.22-1.199c0.892-0.975-0.559-2.434-1.454-1.454c-0.672,0.735-1.407,1.409-2.186,2.029   c-0.211-0.133-0.399-0.296-0.563-0.487c0.969-1.081,1.974-2.128,3.034-3.122c0.967-0.907-0.489-2.36-1.454-1.454   c-0.81,0.76-1.584,1.555-2.342,2.366c-0.099-0.625-0.173-1.271-0.222-1.936c1.202-0.989,2.404-1.978,3.607-2.967   c1.023-0.841-0.439-2.289-1.454-1.454c-0.747,0.614-1.494,1.229-2.24,1.843C73.643,68.057,73.651,67.641,73.661,67.224z"></path><path d="M93.677,82.364c-13.515,0.521-27.038,0.579-40.559,0.303c-12.824-0.262-25.653-1.173-38.477-0.95   c-1.313,0.023-4.315,0.566-5.306-0.063c-1.192-0.756-1.104-3.723-1.16-4.87c-0.141-2.868-0.247-5.738-0.318-8.608   c-0.14-5.694-0.134-11.389-0.069-17.084c0.134-11.62,0.366-23.231,0.132-34.852c-0.036-1.762-2.778-1.768-2.742,0   c0.258,12.776-0.076,25.54-0.164,38.315C4.971,60.631,5.028,66.707,5.257,72.78c0.138,3.653-1.117,10.129,3.348,11.519   c2.294,0.714,5.153,0.175,7.515,0.128c3.322-0.066,6.613-0.038,9.934,0.101c7.277,0.304,14.557,0.572,21.838,0.761   c15.262,0.395,30.528,0.407,45.786-0.182C95.436,85.038,95.445,82.296,93.677,82.364z"></path></g></svg>